<svg width="24" height="30" viewBox="0 0 24 30" fill="none" xmlns="http://www.w3.org/2000/svg">
<g id="Group 1171275129">
<path id="Vector" d="M20.2886 0H2.87738C1.29084 0 0 1.29084 0 2.87738V27.0031C0 28.5897 1.29084 29.8805 2.87738 29.8805H20.2886C21.8752 29.8805 23.166 28.5897 23.166 27.0031V2.87738C23.166 1.29084 21.8752 0 20.2886 0ZM21.838 27.0031C21.838 27.8575 21.143 28.5525 20.2886 28.5525H2.87738C2.02302 28.5525 1.32802 27.8575 1.32802 27.0031V2.87738C1.32802 2.02302 2.02302 1.32802 2.87738 1.32802H20.2886C21.143 1.32802 21.838 2.02302 21.838 2.87738V27.0031Z" fill="black"/>
<path id="Vector_2" d="M5.86494 11.3068H17.301C17.6675 11.3068 17.965 11.0094 17.965 10.6428C17.965 10.2759 17.6675 9.97882 17.301 9.97882H17.0447C16.513 8.32233 15.1075 7.03681 13.359 6.50914C13.5174 6.21963 13.6157 5.89294 13.6157 5.54057C13.6157 4.42016 12.7038 3.50781 11.583 3.50781C10.4621 3.50781 9.5502 4.42016 9.5502 5.54057C9.5502 5.89471 9.64936 6.22229 9.80872 6.51224C8.06282 7.04079 6.67503 8.32189 6.14604 9.97882H5.86494C5.49796 9.97882 5.20093 10.2759 5.20093 10.6428C5.20093 11.0094 5.49796 11.3068 5.86494 11.3068ZM11.583 4.83583C11.9716 4.83583 12.2877 5.1519 12.2877 5.54057C12.2877 5.92924 11.9716 6.24531 11.583 6.24531C11.1943 6.24531 10.8782 5.9288 10.8782 5.54013C10.8782 5.15146 11.1943 4.83583 11.583 4.83583ZM11.5945 7.57333C13.3807 7.57333 14.9623 8.55075 15.6215 9.97882H7.56791C8.22395 8.5481 9.79367 7.57333 11.5945 7.57333Z" fill="black"/>
<path id="Vector_3" d="M19.3577 14.4199H3.80879C3.44181 14.4199 3.14478 14.717 3.14478 15.0839C3.14478 15.4505 3.44181 15.7479 3.80879 15.7479H19.3577C19.7242 15.7479 20.0217 15.4505 20.0217 15.0839C20.0217 14.717 19.7242 14.4199 19.3577 14.4199Z" fill="black"/>
<path id="Vector_4" d="M19.3577 17.9609H3.80879C3.44181 17.9609 3.14478 18.2584 3.14478 18.6249C3.14478 18.9915 3.44181 19.289 3.80879 19.289H19.3577C19.7242 19.289 20.0217 18.9915 20.0217 18.6249C20.0217 18.2584 19.7242 17.9609 19.3577 17.9609Z" fill="black"/>
<path id="Vector_5" d="M19.3577 21.502H3.80879C3.44181 21.502 3.14478 21.7994 3.14478 22.166C3.14478 22.5325 3.44181 22.83 3.80879 22.83H19.3577C19.7242 22.83 20.0217 22.5325 20.0217 22.166C20.0217 21.7994 19.7242 21.502 19.3577 21.502Z" fill="black"/>
<path id="Vector_6" d="M19.3577 25.0449H3.80879C3.44181 25.0449 3.14478 25.3424 3.14478 25.7089C3.14478 26.0755 3.44181 26.3729 3.80879 26.3729H19.3577C19.7242 26.3729 20.0217 26.0755 20.0217 25.7089C20.0217 25.3424 19.7242 25.0449 19.3577 25.0449Z" fill="black"/>
</g>
</svg>
